<mxfile host="app.diagrams.net" agent="Mozilla/5.0 (Windows NT 10.0; Win64; x64) AppleWebKit/537.36 (KHTML, like Gecko) Chrome/131.0.0.0 Safari/537.36" version="26.0.5">
  <diagram name="第 1 页" id="bzPSUCuEi1GjW8RFPb2N">
    <mxGraphModel dx="1674" dy="772" grid="1" gridSize="10" guides="1" tooltips="1" connect="1" arrows="1" fold="1" page="1" pageScale="1" pageWidth="827" pageHeight="1169" math="0" shadow="0">
      <root>
        <mxCell id="0" />
        <mxCell id="1" parent="0" />
        <mxCell id="B4u7MFJt4ic3U0WcCb89-3" value="" style="edgeStyle=orthogonalEdgeStyle;rounded=0;orthogonalLoop=1;jettySize=auto;html=1;" edge="1" parent="1" source="B4u7MFJt4ic3U0WcCb89-1" target="B4u7MFJt4ic3U0WcCb89-2">
          <mxGeometry relative="1" as="geometry" />
        </mxCell>
        <mxCell id="B4u7MFJt4ic3U0WcCb89-1" value="&lt;div style=&quot;color: rgb(204, 204, 204); background-color: rgb(31, 31, 31); font-family: Consolas, &amp;quot;Courier New&amp;quot;, monospace; font-size: 14px; line-height: 19px; white-space: pre;&quot;&gt;&lt;span style=&quot;color: #4ec9b0;&quot;&gt;triton&lt;/span&gt;::&lt;span style=&quot;color: #4ec9b0;&quot;&gt;server&lt;/span&gt;::TritonParser tp&lt;/div&gt;" style="rounded=0;whiteSpace=wrap;html=1;" vertex="1" parent="1">
          <mxGeometry x="120" y="40" width="250" height="60" as="geometry" />
        </mxCell>
        <mxCell id="B4u7MFJt4ic3U0WcCb89-2" value="&lt;div style=&quot;color: rgb(204, 204, 204); background-color: rgb(31, 31, 31); font-family: Consolas, &amp;quot;Courier New&amp;quot;, monospace; font-size: 14px; line-height: 19px; white-space: pre;&quot;&gt;&lt;div style=&quot;line-height: 19px;&quot;&gt;&lt;div&gt;&lt;span style=&quot;color: rgb(78, 201, 176);&quot;&gt;TritonParser&lt;/span&gt;::&lt;span style=&quot;color: rgb(220, 220, 170);&quot;&gt;TritonParser&lt;/span&gt;()&lt;/div&gt;&lt;div&gt;&lt;span style=&quot;background-color: light-dark(rgb(31, 31, 31), rgb(210, 210, 210)); color: light-dark(rgb(204, 204, 204), rgb(62, 62, 62));&quot;&gt;{&lt;/span&gt;&lt;/div&gt;&lt;div&gt;&amp;nbsp; &lt;span style=&quot;color: rgb(220, 220, 170);&quot;&gt;SetupOptionGroups&lt;/span&gt;();&lt;/div&gt;&lt;div&gt;}&lt;/div&gt;&lt;/div&gt;&lt;/div&gt;" style="rounded=0;whiteSpace=wrap;html=1;align=left;" vertex="1" parent="1">
          <mxGeometry x="430" y="30" width="260" height="80" as="geometry" />
        </mxCell>
      </root>
    </mxGraphModel>
  </diagram>
</mxfile>
